<svg xmlns="http://www.w3.org/2000/svg" aria-hidden="false" role="img" class="iconify iconify--logos" width="50" height="50" preserveAspectRatio="xMidYMid meet" viewBox="0 0 256 154">
  <path fill="#38BDF8" d="M128 0C93.867 0 70.72 16.693 58.56 50.08c11.52-11.52 23.573-16.693 36.16-15.36c8.96.96 16.213 5.333 21.76 13.12c7.467 10.667 16.533 17.173 27.2 19.52c17.067 3.84 31.467-2.347 43.2-18.56c9.387-12.8 21.227-19.2 35.52-19.2c13.12 0 24.64 5.44 34.56 16.32C221.76 16.694 198.613 0 164.48 0c-34.24 0-58.56 16.64-72.96 49.92c11.52-11.52 23.573-16.693 36.16-15.36c8.96.96 16.213 5.333 21.76 13.12c7.467 10.667 16.533 17.173 27.2 19.52c17.067 3.84 31.467-2.347 43.2-18.56C219.2 32 231.04 25.6 245.44 25.6c13.12 0 24.64 5.44 34.56 16.32C253.76 16.693 230.613 0 196.48 0C161.867 0 138.72 16.693 126.56 50.08z"></path>
</svg>
